<?xml version="1.0" encoding="UTF-8" standalone="no"?>
<!-- Created with Inkscape (http://www.inkscape.org/) -->

<svg
   xmlns:dc="http://purl.org/dc/elements/1.1/"
   xmlns:cc="http://creativecommons.org/ns#"
   xmlns:rdf="http://www.w3.org/1999/02/22-rdf-syntax-ns#"
   xmlns:svg="http://www.w3.org/2000/svg"
   xmlns="http://www.w3.org/2000/svg"
   xmlns:sodipodi="http://sodipodi.sourceforge.net/DTD/sodipodi-0.dtd"
   xmlns:inkscape="http://www.inkscape.org/namespaces/inkscape"
   width="230mm"
   height="230mm"
   viewBox="0 0 230 230"
   version="1.1"
   id="svg9526"
   inkscape:version="0.92.2 (5c3e80d, 2017-08-06)"
   sodipodi:docname="Leyte Province seal.svg">
  <defs
     id="defs9520">
    <circle
       style="fill:none;fill-opacity:1;stroke:#000000;stroke-width:2;stroke-miterlimit:4;stroke-dasharray:none;stroke-opacity:1"
       id="circle10315-6"
       cx="154.88095"
       cy="-188.23215"
       r="140.49644"
       transform="rotate(90)" />
  </defs>
  <sodipodi:namedview
     id="base"
     pagecolor="#ffffff"
     bordercolor="#666666"
     borderopacity="1.0"
     inkscape:pageopacity="0.0"
     inkscape:pageshadow="2"
     inkscape:zoom="0.5"
     inkscape:cx="492.58935"
     inkscape:cy="416.28787"
     inkscape:document-units="mm"
     inkscape:current-layer="layer1"
     showgrid="false"
     showguides="true"
     inkscape:guide-bbox="true"
     inkscape:snap-global="false"
     fit-margin-top="0"
     fit-margin-left="0"
     fit-margin-right="0"
     fit-margin-bottom="0"
     inkscape:window-width="1920"
     inkscape:window-height="1017"
     inkscape:window-x="-8"
     inkscape:window-y="-8"
     inkscape:window-maximized="1">
    <sodipodi:guide
       position="-536.17841,379.28014"
       orientation="1,0"
       id="guide10309"
       inkscape:locked="false" />
    <sodipodi:guide
       position="116.96468,250.96905"
       orientation="1,0"
       id="guide10426"
       inkscape:locked="false" />
  </sodipodi:namedview>
  <metadata
     id="metadata9523">
    <rdf:RDF>
      <cc:Work
         rdf:about="">
        <dc:format>image/svg+xml</dc:format>
        <dc:type
           rdf:resource="http://purl.org/dc/dcmitype/StillImage" />
        <dc:title></dc:title>
      </cc:Work>
    </rdf:RDF>
  </metadata>
  <g
     inkscape:label="Layer 1"
     inkscape:groupmode="layer"
     id="layer1"
     transform="translate(-71.267766,-41.845333)">
    <g
       id="g10521"
       transform="matrix(0.64285392,0,0,0.64285392,65.261992,57.279507)">
      <circle
         r="178.88979"
         cy="154.88095"
         cx="188.23215"
         id="path9717"
         style="fill:#1042a7;fill-opacity:1;stroke:none;stroke-width:2;stroke-miterlimit:4;stroke-dasharray:none;stroke-opacity:1" />
      <circle
         style="fill:#fefefe;fill-opacity:1;stroke:none;stroke-width:2;stroke-miterlimit:4;stroke-dasharray:none;stroke-opacity:1"
         id="circle9719"
         cx="188.23215"
         cy="154.88095"
         r="133.2563" />
      <g
         id="g12149"
         transform="matrix(0.30213083,0,0,0.30213083,1401.7696,-14.697994)">
        <g
           transform="translate(-1454.0869,-47.095831)"
           id="g12076">
          <path
             style="fill:#ce1126;fill-opacity:1;stroke:#000000;stroke-width:2;stroke-miterlimit:4;stroke-dasharray:none;stroke-opacity:1"
             d="m -2856.4148,305.78047 h 586.3167 v 605.36665 l -293.1584,110.06668 -293.1583,-110.06668 z"
             id="rect12025"
             inkscape:connector-curvature="0"
             sodipodi:nodetypes="cccccc" />
          <path
             sodipodi:nodetypes="ccccc"
             inkscape:connector-curvature="0"
             id="path12028"
             d="m -2856.4148,305.78047 h 586.3167 v 239.18644 h -586.3167 z"
             style="fill:#0038a8;fill-opacity:1;stroke:none;stroke-width:2;stroke-miterlimit:4;stroke-dasharray:none;stroke-opacity:1" />
          <path
             sodipodi:nodetypes="cccccc"
             inkscape:connector-curvature="0"
             id="path12064"
             d="m -2856.4148,305.78047 h 586.3167 v 605.36665 l -293.1584,110.06668 -293.1583,-110.06668 z"
             style="fill:none;fill-opacity:1;stroke:#e0b224;stroke-width:8;stroke-miterlimit:4;stroke-dasharray:none;stroke-opacity:1" />
        </g>
        <g
           style="fill:#f0c955;fill-opacity:1"
           transform="matrix(0.12691273,-0.03400617,-0.03400617,-0.12691273,-3803.1061,851.00721)"
           id="g10067">
          <g
             aria-label="★★★★★★★★★★★★★★★★★★★★★★★★★★★★★★★★★★★★★★★★★"
             style="font-style:normal;font-weight:normal;font-size:210.95014954px;line-height:1.25;font-family:sans-serif;letter-spacing:0px;word-spacing:0px;fill:#f0c955;fill-opacity:1;stroke:none;stroke-width:5.27375364"
             id="text9936">
            <path
               inkscape:connector-curvature="0"
               d="m 160.56333,1401.9209 -5.48185,71.4802 68.95732,27.6024 -72.35985,16.7646 -5.48184,71.4802 -35.78527,-61.4219 -69.832006,16.1321 46.249857,-53.4777 -37.554511,-59.9046 66.5555,26.5917 z"
               style="fill:#f0c955;fill-opacity:1;stroke-width:5.27375364"
               id="path9942" />
            <path
               inkscape:connector-curvature="0"
               d="m 140.46152,1627.2416 -16.32439,69.8067 63.93819,37.801 -74.07057,5.5274 -16.324383,69.8067 -25.994249,-66.1629 -71.47580356,5.288 53.86812956,-45.7946 -27.974275,-64.9334 61.718699,36.4356 z"
               style="fill:#f0c955;fill-opacity:1;stroke-width:5.27375364"
               id="path9944" />
            <path
               inkscape:connector-curvature="0"
               d="m 86.21496,1846.8499 -26.780478,66.5002 57.424638,47.1107 -74.047003,-5.8347 -26.780478,66.5002 -15.5987966,-69.3535 -71.4460694,-5.6756 60.222558,-37.0426 -17.743179,-68.4405 55.439347,45.4228 z"
               style="fill:#f0c955;fill-opacity:1;stroke-width:5.27375364"
               id="path9946" />
            <path
               inkscape:connector-curvature="0"
               d="m -0.88777631,2055.6163 -36.60932069,61.6378 49.567873,55.3175 -72.290899,-17.0595 -36.60932,61.6379 -4.839007,-70.9212 -69.74466,-16.5057 65.16752,-27.4245 -7.09756,-70.3459 47.863222,53.3467 z"
               style="fill:#f0c955;fill-opacity:1;stroke-width:5.27375364"
               id="path9948" />
            <path
               inkscape:connector-curvature="0"
               d="m -118.81758,2248.6606 -45.58569,55.33 40.54677,62.2331 -68.84134,-27.8903 -45.5857,55.3301 6.03922,-70.8291 -66.40944,-26.9544 68.58903,-17.1598 3.71932,-70.6051 39.16282,60.0252 z"
               style="fill:#f0c955;fill-opacity:1;stroke-width:5.27375364"
               id="path9950" />
            <path
               inkscape:connector-curvature="0"
               d="m -264.81599,2421.4425 -53.48978,47.7317 30.58276,67.6882 -63.78331,-38.0617 -53.48977,47.7317 16.76921,-69.0799 -61.52256,-36.7658 70.40356,-6.5001 14.44229,-69.2122 29.55167,65.2951 z"
               style="fill:#f0c955;fill-opacity:1;stroke-width:5.27375364"
               id="path9952" />
            <path
               inkscape:connector-curvature="0"
               d="m -435.45969,2569.9479 -60.14621,39.0115 19.8971,71.562 -57.22922,-47.3479 -60.14621,39.0116 27.1128,-65.7125 -55.19266,-45.7222 70.57101,4.3179 24.83332,-66.1983 19.2432,69.0395 z"
               style="fill:#f0c955;fill-opacity:1;stroke-width:5.27375364"
               id="path9954" />
            <path
               inkscape:connector-curvature="0"
               d="m -626.76178,2690.6729 -65.39296,29.3808 8.7487,73.7595 -49.33744,-55.5232 -65.39295,29.3808 36.81887,-60.8079 -47.57266,-53.6059 69.0866,15.0318 34.64017,-61.6358 8.48721,71.1668 z"
               style="fill:#f0c955;fill-opacity:1;stroke-width:5.27375364"
               id="path9956" />
            <path
               inkscape:connector-curvature="0"
               d="m -834.23575,2780.8084 -69.10876,19.0643 -2.60234,74.231 -40.29275,-62.3979 -69.1088,19.0643 45.66176,-54.4816 -38.84096,-60.2339 65.98599,25.392 43.63476,-55.632 -2.46539,71.6287 z"
               style="fill:#f0c955;fill-opacity:1;stroke-width:5.27375364"
               id="path9958" />
            <path
               inkscape:connector-curvature="0"
               d="m -1053.037,2838.2491 -71.2085,8.2963 -13.8982,72.9646 -30.3001,-67.8152 -71.2084,8.2963 53.44,-46.8764 -29.1956,-65.4552 61.339,35.1631 51.6123,-48.3227 -13.3658,70.4138 z"
               style="fill:#f0c955;fill-opacity:1;stroke-width:5.27375364"
               id="path9960" />
            <path
               inkscape:connector-curvature="0"
               d="m -1278.0326,2861.628 -71.6407,-2.66 -24.8627,69.9918 -19.6039,-71.6428 -71.6408,-2.66 59.9636,-38.1786 -18.8721,-69.1418 55.2592,44.1059 58.3778,-39.8866 -23.9476,67.552 z"
               style="fill:#f0c955;fill-opacity:1;stroke-width:5.27375364"
               id="path9962" />
            <path
               inkscape:connector-curvature="0"
               d="m -1503.9687,2850.427 -70.3962,-13.5586 -35.2499,65.3793 -8.4444,-73.795 -70.3962,-13.5586 65.0862,-28.5834 -8.1027,-71.2116 47.8833,52.0201 63.7797,-30.5134 -33.9732,63.1077 z"
               style="fill:#f0c955;fill-opacity:1;stroke-width:5.27375364"
               id="path9964" />
            <path
               inkscape:connector-curvature="0"
               d="m -1725.5477,2804.8823 -67.5041,-24.1385 -44.8106,59.2369 2.9115,-74.2195 -67.5041,-24.1385 68.6848,-18.3203 2.8551,-71.6142 39.3876,58.7157 67.6878,-20.4271 -43.2023,57.1867 z"
               style="fill:#f0c955;fill-opacity:1;stroke-width:5.27375364"
               id="path9966" />
            <path
               inkscape:connector-curvature="0"
               d="m -1937.5836,2726.0758 -63.0334,-34.1505 -53.3201,51.7104 14.1959,-72.9073 -63.0333,-34.1506 70.6752,-7.6316 13.7429,-70.3412 29.9727,64.0355 70.0113,-9.8656 -51.418,49.9294 z"
               style="fill:#f0c955;fill-opacity:1;stroke-width:5.27375364"
               id="path9968" />
            <path
               inkscape:connector-curvature="0"
               d="m -2135.1275,2615.8513 -57.0849,-43.3681 -60.5856,42.9697 25.1536,-69.8878 -57.0848,-43.3681 71.0122,3.2411 24.3143,-67.4208 19.8515,67.8589 70.6968,0.9318 -58.4339,41.4997 z"
               style="fill:#f0c955;fill-opacity:1;stroke-width:5.27375364"
               id="path9970" />
            <path
               inkscape:connector-curvature="0"
               d="m -2313.5329,2476.7764 -49.8027,-51.567 -66.4303,33.2267 35.5183,-65.2339 -49.8028,-51.567 69.6871,14.0336 34.3126,-62.9237 9.2698,70.0927 69.7276,11.7032 -64.0797,32.1021 z"
               style="fill:#f0c955;fill-opacity:1;stroke-width:5.27375364"
               id="path9972" />
            <path
               inkscape:connector-curvature="0"
               d="m -2468.6487,2312.1226 -41.3535,-58.5607 -70.7214,22.7041 45.0537,-59.0522 -41.3534,-58.5607 66.7307,24.4999 43.5098,-56.9531 -1.5312,70.6864 67.1263,22.203 -68.2268,21.9513 z"
               style="fill:#f0c955;fill-opacity:1;stroke-width:5.27375364"
               id="path9974" />
            <path
               inkscape:connector-curvature="0"
               d="m -2596.8259,2125.7285 -31.9355,-64.1841 -73.3574,11.6493 53.5353,-51.4876 -31.9356,-64.1841 62.212,34.3934 51.6891,-49.6487 -12.2969,69.6254 62.9533,32.1838 -70.777,11.2858 z"
               style="fill:#f0c955;fill-opacity:1;stroke-width:5.27375364"
               id="path9976" />
            <path
               inkscape:connector-curvature="0"
               d="m -2695.0683,1921.9689 -21.7741,-68.3034 -74.2758,0.3263 60.7608,-42.7215 -21.7741,-68.3034 56.2394,43.4783 58.6558,-41.1856 -22.7708,66.9359 57.3091,41.4075 -71.6702,0.3605 z"
               style="fill:#f0c955;fill-opacity:1;stroke-width:5.27375364"
               id="path9978" />
            <path
               inkscape:connector-curvature="0"
               d="m -2761.0914,1705.6046 -11.0985,-70.8258 -73.4561,-11.0096 66.5674,-32.9513 -11.0985,-70.8258 48.9478,51.5495 64.2526,-31.7545 -32.7163,62.6782 50.3208,49.6662 -70.8862,-10.5781 z"
               style="fill:#f0c955;fill-opacity:1;stroke-width:5.27375364"
               id="path9980" />
            <path
               inkscape:connector-curvature="0"
               d="m -2793.3248,1481.7028 -0.1653,-71.6899 -70.9172,-22.0851 70.8146,-22.4121 -0.1653,-71.6899 40.512,58.4125 68.3444,-21.5823 -41.894,56.9544 42.1562,56.7606 -68.4432,-21.2668 z"
               style="fill:#f0c955;fill-opacity:1;stroke-width:5.27375364"
               id="path9982" />
            <path
               inkscape:connector-curvature="0"
               d="m -2791.0383,1255.504 10.7713,-70.8762 -66.7187,-32.6437 73.4044,-11.3485 10.7714,-70.8763 31.1284,63.9082 70.8366,-10.9053 -50.091,49.898 33.0054,62.5265 -64.3986,-31.4576 z"
               style="fill:#f0c955;fill-opacity:1;stroke-width:5.27375364"
               id="path9984" />
            <path
               inkscape:connector-curvature="0"
               d="m -2754.2683,1032.2987 21.4587,-68.40318 -60.9573,-42.44066 74.2766,-0.0165 21.4587,-68.40315 21.0136,67.90923 71.6712,0.0298 -57.1175,41.67151 23.0794,66.83005 -58.8452,-40.91447 z"
               style="fill:#f0c955;fill-opacity:1;stroke-width:5.27375364"
               id="path9986" />
            <path
               inkscape:connector-curvature="0"
               d="m -2683.8803,817.32175 31.6391,-64.33067 -53.7722,-51.24014 73.4103,11.31076 31.6391,-64.33067 10.4118,70.31948 70.8283,10.95919 -62.8042,32.4738 12.618,69.56795 -51.9176,-49.40971 z"
               style="fill:#f0c955;fill-opacity:1;stroke-width:5.27375364"
               id="path9988" />
            <path
               inkscape:connector-curvature="0"
               d="m -2581.5308,615.58727 41.0827,-58.75099 -45.3259,-58.84357 70.8255,22.37743 41.0827,-58.751 -0.4376,71.08476 68.3274,21.63608 -67.0231,22.51265 1.8574,70.67859 -43.7722,-56.75162 z"
               style="fill:#f0c955;fill-opacity:1;stroke-width:5.27375364"
               id="path9990" />
            <path
               inkscape:connector-curvature="0"
               d="m -2449.5989,431.83281 49.5643,-51.79617 -35.8187,-65.06933 66.5828,32.91999 49.5644,-51.79617 -11.2765,70.186 64.227,31.80622 -69.6729,12.02475 -8.9464,70.13469 -34.6024,-62.76485 z"
               style="fill:#f0c955;fill-opacity:1;stroke-width:5.27375364"
               id="path9992" />
            <path
               inkscape:connector-curvature="0"
               d="m -2291.1882,270.35073 56.884,-43.6311 -25.4759,-69.77091 60.7833,42.68953 56.884,-43.63111 -21.8487,67.64514 58.6249,41.22951 -70.6918,1.25816 -19.5381,67.94981 -24.6252,-67.30788 z"
               style="fill:#f0c955;fill-opacity:1;stroke-width:5.27375364"
               id="path9994" />
            <path
               inkscape:connector-curvature="0"
               d="m -2109.9937,134.92025 62.8752,-34.44105 -14.5322,-72.84104 53.5581,51.463836 62.8752,-34.441047 -31.9141,63.519501 51.6478,49.6916 -70.0561,-9.54253 -29.6769,64.17315 -14.0672,-70.27705 z"
               style="fill:#f0c955;fill-opacity:1;stroke-width:5.27375364"
               id="path9996" />
            <path
               inkscape:connector-curvature="0"
               d="m -1910.2648,28.7224 67.392,-24.4496665 -3.2539,-74.2052155 45.0834,59.029561 67.3921,-24.449666 -41.2276,57.909594 43.4657,56.986729 -67.7814,-20.114546 -39.1163,58.89677 -3.1854,-71.600318 z"
               style="fill:#f0c955;fill-opacity:1;stroke-width:5.27375364"
               id="path9998" />
            <path
               inkscape:connector-curvature="0"
               d="m -1696.6734,-45.778316 70.3329,-13.883388 8.1037,-73.833136 35.5512,65.21586 70.333,-13.883388 -49.5788,50.942919 34.2641,62.95017 -63.9198,-30.2186833 -47.6427,52.2406093 7.7739,-71.248287 z"
               style="fill:#f0c955;fill-opacity:1;stroke-width:5.27375364"
               id="path10000" />
            <path
               inkscape:connector-curvature="0"
               d="m -1474.2142,-86.819345 71.6277,-2.990435 19.2733,-71.73245 25.1853,69.876318 71.6277,-2.990434 -56.7705,42.782503 24.2589,67.440772 -58.5612,-39.616923 -55.0551,44.360371 18.553,-69.228158 z"
               style="fill:#f0c955;fill-opacity:1;stroke-width:5.27375364"
               id="path10002" />
            <path
               inkscape:connector-curvature="0"
               d="m -1248.1041,-93.448084 71.2459,7.967523 29.9868,-67.954369 14.2349,72.899728 71.2459,7.967523 -62.6307,33.624807 13.6907,70.351387 -51.8348,-48.083946 -61.176,35.445806 28.8931,-65.58919 z"
               style="fill:#f0c955;fill-opacity:1;stroke-width:5.27375364"
               id="path10004" />
            <path
               inkscape:connector-curvature="0"
               d="m -1023.6205,-65.51071 69.19603,18.745213 40.00437,-62.583163 2.94487,74.218122 69.196,18.745212 -67.02794,23.6746414 2.7959,71.6165896 -43.89102,-55.430063 -65.86811,25.696278 38.56259,-60.412555 z"
               style="fill:#f0c955;fill-opacity:1;stroke-width:5.27375364"
               id="path10006" />
            <path
               inkscape:connector-curvature="0"
               d="m -806.03517,-3.6516019 65.5278,29.0788059 49.08078,-55.750145 -8.40836,73.79906 65.5278,29.078806 -69.85443,13.17548 -8.15883,71.205245 -34.92412,-61.475351 -69.01652,15.350341 47.32487,-53.824802 z"
               style="fill:#f0c955;fill-opacity:1;stroke-width:5.27375364"
               id="path10008" />
            <path
               inkscape:connector-curvature="0"
               d="m -600.4252,90.665116 60.32563,38.733544 57.01008,-47.611471 -19.56659,71.652981 60.32563,38.73355 -71.0467,2.36637 -18.92435,69.12758 -25.13859,-66.08301 -70.55034,4.64359 54.98105,-45.9765 z"
               style="fill:#f0c955;fill-opacity:1;stroke-width:5.27375364"
               id="path10010" />
            <path
               inkscape:connector-curvature="0"
               d="m -411.60661,215.24712 53.7094,47.48441 63.60705,-38.35551 -30.27018,67.82859 53.7094,47.48441 -70.5759,-8.50152 -29.25013,65.43075 -14.76143,-69.14487 -70.4328,-6.17523 61.35231,-37.04926 z"
               style="fill:#f0c955;fill-opacity:1;stroke-width:5.27375364"
               id="path10012" />
            <path
               inkscape:connector-curvature="0"
               d="m -244.01007,367.17011 45.84056,55.11907 68.7119,-28.20773 -40.25914,62.41957 45.84055,55.11908 -68.45418,-19.16399 -38.88539,60.20531 -4.04512,-70.58718 -68.66749,-16.84308 66.28434,-27.26057 z"
               style="fill:#f0c955;fill-opacity:1;stroke-width:5.27375364"
               id="path10014" />
            <path
               inkscape:connector-curvature="0"
               d="m -101.53694,542.88275 36.893375,61.46826 72.2114024,-17.39296 -49.3120634,55.54568 36.89338,61.46826 -64.728447,-29.38472 -47.616527,53.56696 6.77285,-70.37785 -65.29339,-27.12354 69.66775,-16.82731 z"
               style="fill:#f0c955;fill-opacity:1;stroke-width:5.27375364"
               id="path10016" />
            <path
               inkscape:connector-curvature="0"
               d="m 12.452715,738.27048 27.086962,66.37594 74.019293,-6.17618 -57.206696,47.37504 27.086962,66.37594 -59.489602,-38.91299 -55.229219,45.67807 17.427271,-68.52155 -60.392797,-36.76442 71.4191272,-6.0051 z"
               style="fill:#f0c955;fill-opacity:1;stroke-width:5.27375364"
               id="path10018" />
            <path
               inkscape:connector-curvature="0"
               d="m 95.313605,948.75724 16.646405,69.73066 74.09529,5.1855 -63.76304,38.0956 16.6464,69.7307 -52.858593,-47.5311 -61.549875,36.7201 27.674281,-65.0619 -54.0789181,-45.5454 71.4994491,4.958 z"
               style="fill:#f0c955;fill-opacity:1;stroke-width:5.27375364"
               id="path10020" />
            <path
               inkscape:connector-curvature="0"
               d="m 145.09891,1169.4264 5.81164,71.4542 72.43643,16.4305 -68.82921,27.9203 5.81163,71.4541 -44.98711,-55.0399 -66.432082,26.8986 37.277681,-60.0774 -46.496136,-53.2637 69.905697,15.8097 z"
               style="fill:#f0c955;fill-opacity:1;stroke-width:5.27375364"
               id="path10022" />
          </g>
        </g>
        <g
           transform="matrix(0.44717561,0,0,0.44717561,-2220.8852,284.41745)"
           id="g12062">
          <g
             id="g12071">
            <circle
               r="362.20367"
               cy="974.11218"
               cx="-4017.3438"
               id="path12030"
               style="fill:#0038a8;fill-opacity:1;stroke:none;stroke-width:2;stroke-miterlimit:4;stroke-dasharray:none;stroke-opacity:1" />
            <path
               inkscape:connector-curvature="0"
               id="rect12032"
               d="m -4017.3439,626.98211 a 347.13022,347.13022 0 0 0 -71.8457,7.93354 v 267.25148 h -267.6036 a 347.13022,347.13022 0 0 0 -7.681,71.94524 347.13022,347.13022 0 0 0 7.9122,71.74723 h 267.3724 v 267.7273 a 347.13022,347.13022 0 0 0 71.8457,7.6558 347.13022,347.13022 0 0 0 71.8467,-7.9346 v -267.4485 h 267.6536 a 347.13022,347.13022 0 0 0 7.63,-71.74723 347.13022,347.13022 0 0 0 -7.9559,-71.94524 h -267.3277 v -267.5298 a 347.13022,347.13022 0 0 0 -71.8467,-7.65522 z"
               style="fill:#ffffff;fill-opacity:1;stroke:none;stroke-width:1.12947869;stroke-miterlimit:4;stroke-dasharray:none;stroke-opacity:1" />
            <g
               style="stroke-width:74.11711884;stroke-miterlimit:4;stroke-dasharray:none"
               transform="matrix(0.20635546,0,0,0.20635546,-2900.1621,851.44688)"
               id="g12055">
              <path
                 style="fill:none;stroke:#d93434;stroke-width:86.69537354;stroke-linecap:round;stroke-linejoin:miter;stroke-miterlimit:4;stroke-dasharray:none;stroke-opacity:1"
                 d="m -5717.6056,346.99093 c 169.2692,-157.20562 454.6535,189.88869 585.2133,-67.35191"
                 id="path12049"
                 inkscape:connector-curvature="0"
                 sodipodi:nodetypes="cc" />
              <path
                 style="fill:none;stroke:#d93434;stroke-width:86.69537354;stroke-linecap:round;stroke-linejoin:miter;stroke-miterlimit:4;stroke-dasharray:none;stroke-opacity:1"
                 d="m -5397.3099,357.4679 c -46.0349,61.18369 -77.5902,123.97622 -52.3848,193.0755 324.579,146.42452 -70.4599,147.14528 -31.4309,498.4042"
                 id="path12051"
                 inkscape:connector-curvature="0"
                 sodipodi:nodetypes="ccc" />
            </g>
          </g>
        </g>
        <g
           transform="matrix(0.74992913,0,0,0.74992913,-632.73647,284.43418)"
           id="g12087">
          <rect
             style="fill:#f0c955;fill-opacity:1;stroke:none;stroke-width:5.87660599;stroke-linecap:round;stroke-miterlimit:4;stroke-dasharray:none;stroke-opacity:1"
             id="rect12082"
             width="242.52235"
             height="24.100206"
             x="-244.47389"
             y="-4525.2856"
             transform="rotate(-90)" />
          <path
             id="rect12078"
             transform="matrix(1.1677428,0,0,1.1677428,-5343.0046,-314.41158)"
             d="m 546.0957,469.48633 v 15.39453 h -41.01367 v 28.0957 h 410.98438 v -28.0957 h -41.01368 v -15.39453 z"
             style="fill:#f0f0f0;fill-opacity:1;stroke:none;stroke-width:6.8508234;stroke-linecap:round;stroke-miterlimit:4;stroke-dasharray:none;stroke-opacity:1"
             inkscape:connector-curvature="0" />
        </g>
      </g>
      <g
         id="text10329"
         style="font-style:normal;font-variant:normal;font-weight:normal;font-stretch:normal;font-size:48.27868652px;line-height:1.25;font-family:Arial;-inkscape-font-specification:Arial;text-align:center;letter-spacing:0px;word-spacing:0px;text-anchor:middle;fill:#eeeeee;fill-opacity:1;stroke:none;stroke-width:1.20696723"
         aria-label="PROVINCE OF LEYTE">
        <path
           id="path10364"
           style="font-style:normal;font-variant:normal;font-weight:bold;font-stretch:normal;font-size:38.80555725px;font-family:Arial;-inkscape-font-specification:'Arial Bold';letter-spacing:1.05833328px;fill:#eeeeee;fill-opacity:1;stroke-width:1.20696723"
           d="m 47.038011,140.34316 -27.363122,-4.78185 1.54937,-8.86595 q 0.880695,-5.03959 1.558798,-6.49837 1.026941,-2.24417 3.37603,-3.46865 2.330423,-1.22773 5.596825,-0.65691 2.519797,0.44034 4.077162,1.65503 1.557365,1.21468 2.298719,2.80611 0.725951,1.5695 0.788835,3.08083 0.04621,2.04701 -0.609414,5.7987 l -0.629533,3.60238 10.321832,1.80379 z m -21.768661,-9.4978 7.764706,1.35692 0.528417,-3.02375 q 0.570821,-3.26641 0.33397,-4.44267 -0.236851,-1.17627 -1.043803,-1.95205 -0.80369,-0.79444 -2.016926,-1.00646 -1.493212,-0.26095 -2.617107,0.4467 -1.123894,0.70765 -1.601393,2.00913 -0.359529,0.95664 -0.881422,3.94306 z"
           inkscape:connector-curvature="0" />
        <path
           id="path10366"
           style="font-style:normal;font-variant:normal;font-weight:bold;font-stretch:normal;font-size:38.80555725px;font-family:Arial;-inkscape-font-specification:'Arial Bold';letter-spacing:1.05833328px;fill:#eeeeee;fill-opacity:1;stroke-width:1.20696723"
           d="M 52.2527,113.8104 26.37804,103.70553 30.672268,92.70968 q 1.619813,-4.147712 3.056445,-5.742882 1.425875,-1.619712 3.649649,-2.053127 2.223774,-0.433414 4.518253,0.462652 2.912223,1.137316 4.149802,3.593775 1.219929,2.449566 0.38381,6.048983 1.650101,-1.308386 3.259995,-1.940857 1.616787,-0.650121 5.365548,-1.342331 l 6.281668,-1.187974 -2.440059,6.248042 -7.105361,1.578255 q -3.803904,0.833409 -4.869995,1.271418 -1.083741,0.431116 -1.690101,1.150376 -0.62401,0.71236 -1.327077,2.51264 l -0.41357,1.05899 10.8017,4.21841 z m -12.891486,-11.05568 1.509527,-3.865309 q 1.468171,-3.759415 1.515794,-4.818927 0.04762,-1.059512 -0.522186,-1.892292 -0.569808,-0.832779 -1.734697,-1.287705 -1.306088,-0.510069 -2.376044,-0.114252 -1.080712,0.371274 -1.788793,1.559348 -0.336391,0.60093 -1.577099,3.7779 l -1.592241,4.077117 z"
           inkscape:connector-curvature="0" />
        <path
           id="path10368"
           style="font-style:normal;font-variant:normal;font-weight:bold;font-stretch:normal;font-size:38.80555725px;font-family:Arial;-inkscape-font-specification:'Arial Bold';letter-spacing:1.05833328px;fill:#eeeeee;fill-opacity:1;stroke-width:1.20696723"
           d="m 51.366349,80.260047 q -3.536287,-2.347178 -5.233854,-4.997634 -1.24422,-1.962939 -1.748114,-4.253205 -0.493416,-2.306053 -0.09297,-4.382688 0.519904,-2.77057 2.395551,-5.596443 3.395025,-5.114987 8.601035,-6.071492 5.216488,-0.972292 10.868234,2.779 5.604384,3.719858 6.755226,8.872921 1.135055,5.142585 -2.249492,10.241786 -3.42646,5.162348 -8.590417,6.124023 -5.179745,0.951197 -10.705195,-2.716268 z m 3.038064,-4.91982 q 3.930963,2.60914 7.17251,2.145358 3.22576,-0.474261 5.080449,-3.268559 1.85469,-2.794299 1.033808,-5.908996 -0.82619,-3.140962 -4.851874,-5.812972 -3.978324,-2.640575 -7.099022,-2.187549 -3.11022,0.43724 -5.02778,3.32626 -1.917561,2.889021 -1.101988,5.977452 0.799787,3.077953 4.793897,5.729006 z"
           inkscape:connector-curvature="0" />
        <path
           id="path10370"
           style="font-style:normal;font-variant:normal;font-weight:bold;font-stretch:normal;font-size:38.80555725px;font-family:Arial;-inkscape-font-specification:'Arial Bold';letter-spacing:1.05833328px;fill:#eeeeee;fill-opacity:1;stroke-width:1.20696723"
           d="M 86.492719,56.396611 59.896888,43.635392 64.220293,39.357222 83.677607,49.02605 74.052336,29.628051 78.281462,25.443174 90.748781,52.185079 Z"
           inkscape:connector-curvature="0" />
        <path
           id="path10372"
           style="font-style:normal;font-variant:normal;font-weight:bold;font-stretch:normal;font-size:38.80555725px;font-family:Arial;-inkscape-font-specification:'Arial Bold';letter-spacing:1.05833328px;fill:#eeeeee;fill-opacity:1;stroke-width:1.20696723"
           d="M 101.15421,43.223232 84.480187,21.006494 88.965967,17.639843 105.63999,39.85658 Z"
           inkscape:connector-curvature="0" />
        <path
           id="path10374"
           style="font-style:normal;font-variant:normal;font-weight:bold;font-stretch:normal;font-size:38.80555725px;font-family:Arial;-inkscape-font-specification:'Arial Bold';letter-spacing:1.05833328px;fill:#eeeeee;fill-opacity:1;stroke-width:1.20696723"
           d="M 110.74793,35.859361 97.445848,11.473687 102.23649,8.8604537 121.10016,19.701057 112.21698,3.4162177 l 4.57439,-2.49527484 13.30209,24.38567414 -4.94035,2.694897 -18.50527,-10.539682 8.67448,15.902254 z"
           inkscape:connector-curvature="0" />
        <path
           id="path10376"
           style="font-style:normal;font-variant:normal;font-weight:bold;font-stretch:normal;font-size:38.80555725px;font-family:Arial;-inkscape-font-specification:'Arial Bold';letter-spacing:1.05833328px;fill:#eeeeee;fill-opacity:1;stroke-width:1.20696723"
           d="m 150.67737,7.6388611 5.70431,0.082026 q 0.1146,4.7149539 -2.03972,7.6794659 -2.14164,2.940904 -6.42323,4.23103 -5.29755,1.596258 -9.79617,-0.986335 -4.50408,-2.600735 -6.39554,-8.877976 -2.00079,-6.6400871 0.32385,-11.3380289 2.31917,-4.7160841 7.907,-6.399808 4.88028,-1.4705252 8.79739,0.4957079 2.32809,1.158714 4.19734,4.0784295 l -4.93304,2.87168647 q -1.09489,-1.92609127 -2.9615,-2.66975327 -1.84847,-0.7491286 -3.98926,-0.1040655 -2.9572,0.8910617 -4.16812,3.5713094 -1.19278,2.6747811 0.23948,7.4280675 1.51973,5.0435639 3.97902,6.6376929 2.45929,1.59413 5.36207,0.719468 2.14079,-0.645063 3.27289,-2.470401 1.1321,-1.825338 0.92323,-4.9485159 z"
           inkscape:connector-curvature="0" />
        <path
           id="path10378"
           style="font-style:normal;font-variant:normal;font-weight:bold;font-stretch:normal;font-size:38.80555725px;font-family:Arial;-inkscape-font-specification:'Arial Bold';letter-spacing:1.05833328px;fill:#eeeeee;fill-opacity:1;stroke-width:1.20696723"
           d="m 164.71029,14.895743 -2.60767,-27.655136 20.50555,-1.933516 0.44113,4.678359 -14.9217,1.4070014 0.5781,6.1309137 13.88416,-1.3091697 0.43936,4.65949443 -13.88416,1.30916967 0.70972,7.5268755 15.44991,-1.456807 0.43935,4.659494 z"
           inkscape:connector-curvature="0" />
        <path
           id="path10380"
           style="font-style:normal;font-variant:normal;font-weight:bold;font-stretch:normal;font-size:38.80555725px;font-family:Arial;-inkscape-font-specification:'Arial Bold';letter-spacing:1.05833328px;fill:#eeeeee;fill-opacity:1;stroke-width:1.20696723"
           d="m 205.02147,-0.08766869 q 0.81443,-4.16548751 2.613,-6.74846811 1.33701,-1.9009525 3.25984,-3.2433092 1.94144,-1.338721 4.01316,-1.763856 2.75852,-0.580456 6.08719,0.07036 6.02508,1.178007 8.90189,5.6211377 2.8954,4.4467669 1.59378,11.1041085 -1.29072,6.6015538 -5.61053,9.6376208 -4.31618,3.017472 -10.32267,1.8431 -6.08086,-1.188914 -8.94635,-5.591217 -2.86185,-4.4208995 -1.58931,-10.92947369 z m 5.70812,0.92296698 q -0.90532,4.63038561 0.76419,7.44737991 1.67314,2.7983978 4.96462,3.4419388 3.29148,0.643541 5.85457,-1.307293 2.58532,-1.9657952 3.51246,-6.7077564 0.91622,-4.6861734 -0.69708,-7.3956447 -1.59471,-2.7058355 -4.99777,-3.3711912 -3.40305,-0.6653558 -5.94391,1.2705187 -2.53722,1.9172785 -3.45708,6.62204789 z"
           inkscape:connector-curvature="0" />
        <path
           id="path10382"
           style="font-style:normal;font-variant:normal;font-weight:bold;font-stretch:normal;font-size:38.80555725px;font-family:Arial;-inkscape-font-specification:'Arial Bold';letter-spacing:1.05833328px;fill:#eeeeee;fill-opacity:1;stroke-width:1.20696723"
           d="m 233.9876,20.569198 10.61636,-25.6690339 17.59713,7.2779303 -1.79595,4.3423742 -12.41429,-5.1343807 -2.51288,6.0758219 10.71586,4.4319332 -1.79594,4.342375 -10.71586,-4.431934 -4.5116,10.908464 z"
           inkscape:connector-curvature="0" />
        <path
           id="path10384"
           style="font-style:normal;font-variant:normal;font-weight:bold;font-stretch:normal;font-size:38.80555725px;font-family:Arial;-inkscape-font-specification:'Arial Bold';letter-spacing:1.05833328px;fill:#eeeeee;fill-opacity:1;stroke-width:1.20696723"
           d="m 266.87715,36.818919 16.69555,-21.915397 4.46146,3.39882 -13.85938,18.192493 11.09335,8.45112 -2.83617,3.722904 z"
           inkscape:connector-curvature="0" />
        <path
           id="path10386"
           style="font-style:normal;font-variant:normal;font-weight:bold;font-stretch:normal;font-size:38.80555725px;font-family:Arial;-inkscape-font-specification:'Arial Bold';letter-spacing:1.05833328px;fill:#eeeeee;fill-opacity:1;stroke-width:1.20696723"
           d="m 286.17713,52.168609 20.55153,-18.687994 13.85665,15.238412 -3.47666,3.161407 -10.08335,-11.088854 -4.55611,4.142973 9.38224,10.317821 -3.46264,3.14866 -9.38224,-10.317822 -5.59349,5.086296 10.44029,11.48138 -3.46264,3.14866 z"
           inkscape:connector-curvature="0" />
        <path
           id="path10388"
           style="font-style:normal;font-variant:normal;font-weight:bold;font-stretch:normal;font-size:38.80555725px;font-family:Arial;-inkscape-font-specification:'Arial Bold';letter-spacing:1.05833328px;fill:#eeeeee;fill-opacity:1;stroke-width:1.20696723"
           d="m 307.67101,78.800058 9.97907,-6.090652 8.43039,-17.066004 3.42538,5.612217 -5.97502,11.305279 12.71718,-0.258756 3.36615,5.515175 -19.08436,-0.316975 -9.94673,6.070909 z"
           inkscape:connector-curvature="0" />
        <path
           id="path10390"
           style="font-style:normal;font-variant:normal;font-weight:bold;font-stretch:normal;font-size:38.80555725px;font-family:Arial;-inkscape-font-specification:'Arial Bold';letter-spacing:1.05833328px;fill:#eeeeee;fill-opacity:1;stroke-width:1.20696723"
           d="m 319.54873,101.82244 21.56253,-8.226997 -2.93821,-7.700903 4.3904,-1.67512 7.86901,20.62426 -4.3904,1.67512 -2.93146,-7.683202 -21.56253,8.227002 z"
           inkscape:connector-curvature="0" />
        <path
           id="path10392"
           style="font-style:normal;font-variant:normal;font-weight:bold;font-stretch:normal;font-size:38.80555725px;font-family:Arial;-inkscape-font-specification:'Arial Bold';letter-spacing:1.05833328px;fill:#eeeeee;fill-opacity:1;stroke-width:1.20696723"
           d="m 325.67533,119.34293 27.32651,-4.98686 3.69762,20.26187 -4.62276,0.84362 -2.69073,-14.74438 -6.05806,1.10554 2.50364,13.71917 -4.60412,0.84022 -2.50364,-13.71917 -7.43743,1.35727 2.78597,15.2663 -4.60412,0.84022 z"
           inkscape:connector-curvature="0" />
      </g>
      <g
         id="text10329-1"
         style="font-style:normal;font-variant:normal;font-weight:normal;font-stretch:normal;font-size:48.27868652px;line-height:1.25;font-family:Arial;-inkscape-font-specification:Arial;text-align:center;letter-spacing:0px;word-spacing:0px;text-anchor:middle;fill:#eeeeee;fill-opacity:1;stroke:none;stroke-width:1.20696723"
         aria-label="OFFICIAL SEAL">
        <path
           id="path10395"
           style="font-style:normal;font-variant:normal;font-weight:bold;font-stretch:normal;font-size:38.80555725px;font-family:Arial;-inkscape-font-specification:'Arial Bold';letter-spacing:1.05833328px;fill:#eeeeee;fill-opacity:1;stroke-width:1.20696723"
           d="m 65.692234,252.05815 q 3.086908,-2.913 6.052895,-3.96637 2.193677,-0.76746 4.538556,-0.7397 2.357883,0.0415 4.289919,0.90177 2.580901,1.13371 4.908701,3.60048 4.213448,4.46499 3.966367,9.75237 -0.234077,5.30117 -5.167617,9.95677 -4.892197,4.61658 -10.172008,4.57078 -5.26603,-0.0588 -9.466474,-4.51002 -4.252461,-4.50633 -4.019937,-9.75392 0.246305,-5.2606 5.069598,-9.81216 z m 4.104172,4.07311 q -3.431429,3.23811 -3.713643,6.50048 -0.268433,3.24937 2.033358,5.68858 2.301791,2.43921 5.521462,2.34487 3.246457,-0.0935 6.76057,-3.40969 3.472771,-3.27713 3.738099,-6.41935 0.278332,-3.12845 -2.101485,-5.65034 -2.379818,-2.5219 -5.572704,-2.42679 -3.179105,0.0821 -6.665657,3.37224 z"
           inkscape:connector-curvature="0" />
        <path
           id="path10397"
           style="font-style:normal;font-variant:normal;font-weight:bold;font-stretch:normal;font-size:38.80555725px;font-family:Arial;-inkscape-font-specification:'Arial Bold';letter-spacing:1.05833328px;fill:#eeeeee;fill-opacity:1;stroke-width:1.20696723"
           d="m 78.545404,284.46924 16.812862,-22.11186 15.158534,11.52587 -2.84419,3.74061 -10.693935,-8.13118 -3.979579,5.23384 9.230874,7.01874 -2.844198,3.74061 -9.230871,-7.01874 -7.144893,9.39679 z"
           inkscape:connector-curvature="0" />
        <path
           id="path10399"
           style="font-style:normal;font-variant:normal;font-weight:bold;font-stretch:normal;font-size:38.80555725px;font-family:Arial;-inkscape-font-specification:'Arial Bold';letter-spacing:1.05833328px;fill:#eeeeee;fill-opacity:1;stroke-width:1.20696723"
           d="m 98.577276,299.08011 13.416914,-24.32268 16.67415,9.19782 -2.26971,4.11461 -11.76316,-6.48881 -3.17576,5.75715 10.15381,5.60105 -2.26971,4.11462 -10.15381,-5.60106 -5.70173,10.33631 z"
           inkscape:connector-curvature="0" />
        <path
           id="path10401"
           style="font-style:normal;font-variant:normal;font-weight:bold;font-stretch:normal;font-size:38.80555725px;font-family:Arial;-inkscape-font-specification:'Arial Bold';letter-spacing:1.05833328px;fill:#eeeeee;fill-opacity:1;stroke-width:1.20696723"
           d="m 120.41178,310.33133 10.70728,-25.63124 5.17521,2.1619 -10.70729,25.63125 z"
           inkscape:connector-curvature="0" />
        <path
           id="path10403"
           style="font-style:normal;font-variant:normal;font-weight:bold;font-stretch:normal;font-size:38.80555725px;font-family:Arial;-inkscape-font-specification:'Arial Bold';letter-spacing:1.05833328px;fill:#eeeeee;fill-opacity:1;stroke-width:1.20696723"
           d="m 151.33592,310.05279 4.76825,3.13202 q -2.43493,4.03919 -5.84411,5.3834 -3.38581,1.33111 -7.69058,0.12057 -5.32623,-1.49778 -7.7347,-6.09198 -2.40334,-4.61243 -0.62857,-10.92365 1.87736,-6.67604 6.36096,-9.39117 4.48873,-2.73337 10.10681,-1.15352 4.9067,1.37981 7.15554,5.1418 1.34189,2.22754 1.35114,5.69435 l -5.70353,-0.22608 q 0.1105,-2.21278 -1.06493,-3.8424 -1.15718,-1.62448 -3.30956,-2.22975 -2.97321,-0.83609 -5.43388,0.77485 -2.44244,1.61607 -3.78634,6.39509 -1.42597,5.07087 -0.20719,7.73619 1.21879,2.66532 4.13727,3.48603 2.15238,0.60527 4.08753,-0.32678 1.93515,-0.93204 3.43589,-3.67897 z"
           inkscape:connector-curvature="0" />
        <path
           id="path10405"
           style="font-style:normal;font-variant:normal;font-weight:bold;font-stretch:normal;font-size:38.80555725px;font-family:Arial;-inkscape-font-specification:'Arial Bold';letter-spacing:1.05833328px;fill:#eeeeee;fill-opacity:1;stroke-width:1.20696723"
           d="m 159.52982,322.01943 4.22677,-27.45434 5.5433,0.85342 -4.22676,27.45435 z"
           inkscape:connector-curvature="0" />
        <path
           id="path10407"
           style="font-style:normal;font-variant:normal;font-weight:bold;font-stretch:normal;font-size:38.80555725px;font-family:Arial;-inkscape-font-specification:'Arial Bold';letter-spacing:1.05833328px;fill:#eeeeee;fill-opacity:1;stroke-width:1.20696723"
           d="m 196.43141,324.77962 -6.09797,-0.20046 -2.21673,-6.38597 -11.09755,-0.36481 -2.49878,6.23096 -5.94647,-0.19548 11.72613,-27.40734 5.92753,0.19486 z m -9.96002,-11.32321 -3.48678,-10.42791 -4.08834,10.1789 z"
           inkscape:connector-curvature="0" />
        <path
           id="path10409"
           style="font-style:normal;font-variant:normal;font-weight:bold;font-stretch:normal;font-size:38.80555725px;font-family:Arial;-inkscape-font-specification:'Arial Bold';letter-spacing:1.05833328px;fill:#eeeeee;fill-opacity:1;stroke-width:1.20696723"
           d="m 200.6539,324.18443 -3.36461,-27.34421 5.56664,-0.68495 2.79303,22.69907 13.84136,-1.70313 0.57157,4.64513 z"
           inkscape:connector-curvature="0" />
        <path
           id="path10411"
           style="font-style:normal;font-variant:normal;font-weight:bold;font-stretch:normal;font-size:38.80555725px;font-family:Arial;-inkscape-font-specification:'Arial Bold';letter-spacing:1.05833328px;fill:#eeeeee;fill-opacity:1;stroke-width:1.20696723"
           d="m 231.48248,309.92088 4.95853,-2.33958 q 1.39024,2.42044 3.23393,3.12869 1.86154,0.70187 4.26971,-0.16068 2.55088,-0.91366 3.45188,-2.44399 0.91245,-1.55455 0.39492,-2.99945 -0.33224,-0.92759 -1.11524,-1.37171 -0.77155,-0.46834 -2.29977,-0.46439 -1.0426,0.0111 -4.63659,0.3726 -4.62249,0.46818 -6.88444,-0.45254 -3.18127,-1.29589 -4.293,-4.39976 -0.71559,-1.99789 -0.21154,-4.13072 0.51551,-2.15707 2.31241,-3.82714 1.81475,-1.67647 4.82942,-2.75625 4.92338,-1.76343 8.176,-0.4931 3.27046,1.26394 4.68596,4.82255 l -5.19708,2.12312 q -1.06091,-1.89434 -2.4978,-2.36589 -1.42544,-0.49578 -3.65523,0.30287 -2.30114,0.82422 -3.2647,2.23606 -0.62117,0.9068 -0.25698,1.92358 0.33224,0.92759 1.35353,1.30648 1.29924,0.48061 5.47816,0.0103 4.17893,-0.47032 6.36768,-0.14731 2.20021,0.29879 3.84181,1.62285 1.65305,1.29984 2.54115,3.77936 0.80505,2.24763 0.25918,4.65709 -0.54586,2.40946 -2.48415,4.19055 -1.94467,1.76326 -5.35179,2.9836 -4.95904,1.77621 -8.43478,0.44491 -3.48212,-1.34914 -5.57118,-5.55208 z"
           inkscape:connector-curvature="0" />
        <path
           id="path10413"
           style="font-style:normal;font-variant:normal;font-weight:bold;font-stretch:normal;font-size:38.80555725px;font-family:Arial;-inkscape-font-specification:'Arial Bold';letter-spacing:1.05833328px;fill:#eeeeee;fill-opacity:1;stroke-width:1.20696723"
           d="m 261.09808,308.33878 -13.41169,-24.32557 18.03676,-9.94441 2.26883,4.11511 -13.12519,7.23645 2.97326,5.39278 12.21256,-6.73329 2.25968,4.09851 -12.21256,6.73329 3.65025,6.62067 13.58979,-7.49262 2.25968,4.09851 z"
           inkscape:connector-curvature="0" />
        <path
           id="path10415"
           style="font-style:normal;font-variant:normal;font-weight:bold;font-stretch:normal;font-size:38.80555725px;font-family:Arial;-inkscape-font-specification:'Arial Bold';letter-spacing:1.05833328px;fill:#eeeeee;fill-opacity:1;stroke-width:1.20696723"
           d="m 304.16715,279.35053 -4.786,3.78413 -5.81591,-3.44524 -8.70992,6.88665 2.11493,6.37148 -4.66709,3.69011 -8.7414,-28.50003 4.65223,-3.67837 z m -14.91666,-2.21592 -9.39547,-5.71177 3.45013,10.41255 z"
           inkscape:connector-curvature="0" />
        <path
           id="path10417"
           style="font-style:normal;font-variant:normal;font-weight:bold;font-stretch:normal;font-size:38.80555725px;font-family:Arial;-inkscape-font-specification:'Arial Bold';letter-spacing:1.05833328px;fill:#eeeeee;fill-opacity:1;stroke-width:1.20696723"
           d="m 307.01295,276.1741 -20.27546,-18.65294 3.7973,-4.1276 16.83114,15.48425 9.44192,-10.26323 3.44432,3.16869 z"
           inkscape:connector-curvature="0" />
      </g>
      <g
         id="g10424">
        <path
           style="fill:#ffffff;fill-opacity:1;stroke:#000000;stroke-width:0.11033875;stroke-miterlimit:4;stroke-dasharray:none;stroke-opacity:1"
           d="m 35.843293,185.06098 v 3.71122 a 9.7188551,9.7188551 0 0 0 -1.795744,0.7316 l -2.59386,-2.62046 -3.990551,3.97724 2.59386,2.63377 a 9.7188551,9.7188551 0 0 0 -0.731602,1.76249 h -3.724517 v 5.63333 h 3.724517 a 9.7188551,9.7188551 0 0 0 0.731602,1.76915 l -2.59386,2.62711 3.990551,3.9839 2.59386,-2.63377 a 9.7188551,9.7188551 0 0 0 1.795744,0.73161 v 3.71786 h 5.586775 v -3.71786 a 9.7188551,9.7188551 0 0 0 1.795747,-0.73161 l 2.660369,2.63377 3.924043,-3.9839 -2.593859,-2.63377 a 9.7188551,9.7188551 0 0 0 0.731601,-1.76249 h 3.724515 v -5.63333 h -3.724515 a 9.7188551,9.7188551 0 0 0 -0.731601,-1.76249 l 2.593859,-2.63377 -3.924043,-3.97724 -2.660369,2.62711 a 9.7188551,9.7188551 0 0 0 -1.795747,-0.73161 v -3.71786 z m 2.79339,7.31602 a 5.4717797,5.4717797 0 0 1 5.453754,5.46705 5.4717797,5.4717797 0 0 1 -5.453754,5.47371 5.4717797,5.4717797 0 0 1 -5.453757,-5.47371 5.4717797,5.4717797 0 0 1 0,-0.54538 5.4717797,5.4717797 0 0 1 5.453757,-4.92167 z"
           id="path9717-4"
           inkscape:connector-curvature="0" />
        <path
           inkscape:connector-curvature="0"
           id="path10420"
           d="m 335.38558,185.06098 v 3.71122 a 9.7188551,9.7188551 0 0 0 -1.79574,0.7316 l -2.59386,-2.62046 -3.99055,3.97724 2.59386,2.63377 a 9.7188551,9.7188551 0 0 0 -0.7316,1.76249 h -3.72452 v 5.63333 h 3.72452 a 9.7188551,9.7188551 0 0 0 0.7316,1.76915 l -2.59386,2.62711 3.99055,3.9839 2.59386,-2.63377 a 9.7188551,9.7188551 0 0 0 1.79574,0.73161 v 3.71786 h 5.58678 v -3.71786 a 9.7188551,9.7188551 0 0 0 1.79575,-0.73161 l 2.66036,2.63377 3.92405,-3.9839 -2.59386,-2.63377 a 9.7188551,9.7188551 0 0 0 0.7316,-1.76249 h 3.72451 v -5.63333 h -3.72451 a 9.7188551,9.7188551 0 0 0 -0.7316,-1.76249 l 2.59386,-2.63377 -3.92405,-3.97724 -2.66036,2.62711 a 9.7188551,9.7188551 0 0 0 -1.79575,-0.73161 v -3.71786 z m 2.79339,7.31602 a 5.4717797,5.4717797 0 0 1 5.45376,5.46705 5.4717797,5.4717797 0 0 1 -5.45376,5.47371 5.4717797,5.4717797 0 0 1 -5.45375,-5.47371 5.4717797,5.4717797 0 0 1 0,-0.54538 5.4717797,5.4717797 0 0 1 5.45375,-4.92167 z"
           style="fill:#ffffff;fill-opacity:1;stroke:#000000;stroke-width:0.11033875;stroke-miterlimit:4;stroke-dasharray:none;stroke-opacity:1" />
      </g>
    </g>
  </g>
</svg>
